<?xml version="1.0" encoding="UTF-8" standalone="no"?>
<!-- Created with Inkscape (http://www.inkscape.org/) -->

<svg
   xmlns:dc="http://purl.org/dc/elements/1.1/"
   xmlns:cc="http://creativecommons.org/ns#"
   xmlns:rdf="http://www.w3.org/1999/02/22-rdf-syntax-ns#"
   xmlns:svg="http://www.w3.org/2000/svg"
   xmlns="http://www.w3.org/2000/svg"
   xmlns:sodipodi="http://sodipodi.sourceforge.net/DTD/sodipodi-0.dtd"
   xmlns:inkscape="http://www.inkscape.org/namespaces/inkscape"
   id="svg2"
   version="1.1"
   inkscape:version="0.91 r13725"
   xml:space="preserve"
   width="600"
   height="450.5"
   viewBox="0 0 600.00001 450.50001"
   sodipodi:docname="Logo Noisy Sec.svg"><metadata
     id="metadata8"><rdf:RDF><cc:Work
         rdf:about=""><dc:format>image/svg+xml</dc:format><dc:type
           rdf:resource="http://purl.org/dc/dcmitype/StillImage" /><dc:title></dc:title></cc:Work></rdf:RDF></metadata><defs
     id="defs6"><clipPath
       clipPathUnits="userSpaceOnUse"
       id="clipPath18"><path
         d="m 0,0 722.315,0 0,1005.78 L 0,1005.78 0,0 Z"
         id="path20"
         inkscape:connector-curvature="0" /></clipPath><clipPath
       clipPathUnits="userSpaceOnUse"
       id="clipPath28"><path
         d="m 693.749,998.951 c 4.449,-10.053 6.875,-20.631 7.566,-31.391 l 0,0 0,31.391 -7.566,0 z m -501.346,0 0,-170.293 -184.195,0 0,-718.58 693.107,0 -693.107,0 0,471.703 0,1.91 c 27.9,1.306 57.817,5.129 88.973,11.299 l 0,0 -28.299,0 0,32.095 c -5.767,11.4 -5.254,27.979 0,42.729 l 0,0 0,125.777 187.509,0 c 8.362,21.12 22.968,38.801 44.823,45.671 l 0,0 c 10.623,-8.94 17.457,-25.995 20.641,-45.671 l 0,0 49.525,0 c -23.476,45.394 -11.484,134.436 63.474,157.251 l 0,0 c 51.593,-54.112 46.912,-120.794 20.743,-157.251 l 0,0 49.547,0 c 8.861,8.669 16.961,17.364 24.23,26.038 l 0,0 c 0.414,0.489 1.006,0.746 1.603,0.746 l 0,0 c 0.473,0 0.949,-0.161 1.341,-0.492 l 0,0 c 0.887,-0.741 1.004,-2.058 0.263,-2.934 l 0,0 c -6.522,-7.784 -13.7,-15.578 -21.495,-23.358 l 0,0 162.183,0 0,-200.601 -218.732,0 c -5.949,-5.547 -12.548,-9.906 -19.544,-13.209 l 0,0 266.322,0 0,372.563 c -3.832,-61.773 -60.071,-124.76 -115.13,-124.76 l 0,0 c -11.944,0 -23.825,2.962 -35.111,9.544 l 0,0 c -53.796,77.05 41.084,147.383 117.801,159.823 l 0,0 -476.472,0 z m -184.195,0 0,-170.293 0,170.293 z M 230.278,594.99 c 11.097,-2.444 22.969,-7.16 33.587,-13.209 l 0,0 91.267,0 c -8.124,3.526 -15.247,8.023 -20.784,13.209 l 0,0 -104.07,0 z m -112.956,0 c -13.588,-3.059 -26.983,-5.697 -40.116,-7.897 l 0,0 c -13.283,-2.222 -26.303,-3.997 -38.994,-5.312 l 0,0 151.897,0 c 1.677,6.779 6.169,11.017 12.416,13.209 l 0,0 -85.203,0 z"
         id="path30"
         inkscape:connector-curvature="0" /></clipPath><clipPath
       clipPathUnits="userSpaceOnUse"
       id="clipPath34"><path
         d="m 0,0 722.315,0 0,1005.78 L 0,1005.78 0,0 Z"
         id="path36"
         inkscape:connector-curvature="0" /></clipPath><linearGradient
       x1="0"
       y1="0"
       x2="1"
       y2="0"
       gradientUnits="userSpaceOnUse"
       gradientTransform="matrix(0,-934.2023,-934.2023,0,755.3096,1044.285)"
       spreadMethod="pad"
       id="linearGradient40"><stop
         style="stop-opacity:1;stop-color:#ffffff"
         offset="0"
         id="stop42" /><stop
         style="stop-opacity:1;stop-color:#3aa09a"
         offset="1"
         id="stop44" /></linearGradient><clipPath
       clipPathUnits="userSpaceOnUse"
       id="clipPath52"><path
         d="m 38.212,581.781 c -10.222,-1.06 -20.237,-1.82 -30.003,-2.274 l 0,0 0,-402.446 208.101,0 0,362.496 c -17.171,9.225 -29.293,23.683 -26.578,40.381 l 0,0 c 0.103,0.633 0.229,1.25 0.376,1.843 l 0,0 -151.896,0 z m 50.634,-17.996 c 2.104,8.885 9.331,12.521 18.769,12.521 l 0,0 c 24.849,0 65.009,-25.214 67.241,-46.24 l 0,0 c -6.125,-8.708 -16.771,-12.408 -28.553,-12.408 l 0,0 c -28.365,0 -63.297,21.456 -57.457,46.127"
         id="path54"
         inkscape:connector-curvature="0" /></clipPath><clipPath
       clipPathUnits="userSpaceOnUse"
       id="clipPath58"><path
         d="m 0,0 722.315,0 0,1005.78 L 0,1005.78 0,0 Z"
         id="path60"
         inkscape:connector-curvature="0" /></clipPath><clipPath
       clipPathUnits="userSpaceOnUse"
       id="clipPath70"><path
         d="m 434.993,581.781 c -12.259,-5.788 -25.714,-8.332 -38.934,-8.332 l 0,0 c -14.568,0 -28.856,3.093 -40.927,8.332 l 0,0 -91.267,0 c 16.922,-9.641 30.649,-22.662 32.904,-35.231 l 0,0 c -7.451,-12.381 -22.286,-17.668 -38.618,-17.668 l 0,0 c -2.515,0 -5.067,0.126 -7.632,0.371 l 0,0 0,-217.381 312.436,0 0,269.909 -127.962,0 z"
         id="path72"
         inkscape:connector-curvature="0" /></clipPath><clipPath
       clipPathUnits="userSpaceOnUse"
       id="clipPath76"><path
         d="m 0,0 722.315,0 0,1005.78 L 0,1005.78 0,0 Z"
         id="path78"
         inkscape:connector-curvature="0" /></clipPath><clipPath
       clipPathUnits="userSpaceOnUse"
       id="clipPath88"><path
         d="m 562.386,110.078 138.928,0 0,471.703 -138.928,0 0,-471.703 z"
         id="path90"
         inkscape:connector-curvature="0" /></clipPath><clipPath
       clipPathUnits="userSpaceOnUse"
       id="clipPath100"><path
         d="m 215.74,110.078 35.348,0 0,419.122 c -12.21,1.081 -24.771,4.874 -35.348,10.666 l 0,0 0,-429.788 z"
         id="path102"
         inkscape:connector-curvature="0" /></clipPath><clipPath
       clipPathUnits="userSpaceOnUse"
       id="clipPath106"><path
         d="m 0,0 722.315,0 0,1005.78 L 0,1005.78 0,0 Z"
         id="path108"
         inkscape:connector-curvature="0" /></clipPath><clipPath
       clipPathUnits="userSpaceOnUse"
       id="clipPath118"><path
         d="m 250.519,110.078 312.437,0 0,202.364 -312.437,0 0,-202.364 z"
         id="path120"
         inkscape:connector-curvature="0" /></clipPath><clipPath
       clipPathUnits="userSpaceOnUse"
       id="clipPath130"><path
         d="m 8.209,110.078 208.101,0 0,67.553 -208.101,0 0,-67.553 z"
         id="path132"
         inkscape:connector-curvature="0" /></clipPath><clipPath
       clipPathUnits="userSpaceOnUse"
       id="clipPath142"><path
         d="m 0,0 722.315,0 0,1005.78 L 0,1005.78 0,0 Z"
         id="path144"
         inkscape:connector-curvature="0" /></clipPath><clipPath
       clipPathUnits="userSpaceOnUse"
       id="clipPath152"><path
         d="m 8.208,6.827 693.107,0 0,120.272 -693.107,0 0,-120.272 z"
         id="path154"
         inkscape:connector-curvature="0" /></clipPath><clipPath
       clipPathUnits="userSpaceOnUse"
       id="clipPath162"><path
         d="m 504.544,59.378 19.175,0 0,19.174 -19.175,0 0,-19.174 z"
         id="path164"
         inkscape:connector-curvature="0" /></clipPath><clipPath
       clipPathUnits="userSpaceOnUse"
       id="clipPath172"><path
         d="m 8.208,6.827 693.107,0 0,120.272 -693.107,0 0,-120.272 z"
         id="path174"
         inkscape:connector-curvature="0" /></clipPath><clipPath
       clipPathUnits="userSpaceOnUse"
       id="clipPath182"><path
         d="m 8.208,109.799 693.107,0 0,2.453 -693.107,0 0,-2.453 z"
         id="path184"
         inkscape:connector-curvature="0" /></clipPath><linearGradient
       x1="0"
       y1="0"
       x2="1"
       y2="0"
       gradientUnits="userSpaceOnUse"
       gradientTransform="matrix(730.3987,0,0,-730.3987,-8.631784,111.0263)"
       spreadMethod="pad"
       id="linearGradient188"><stop
         style="stop-opacity:1;stop-color:#3db6b0"
         offset="0"
         id="stop190" /><stop
         style="stop-opacity:1;stop-color:#3db6b0"
         offset="1"
         id="stop192" /></linearGradient><clipPath
       clipPathUnits="userSpaceOnUse"
       id="clipPath200"><path
         d="m 0,0 722.315,0 0,1005.78 L 0,1005.78 0,0 Z"
         id="path202"
         inkscape:connector-curvature="0" /></clipPath><clipPath
       clipPathUnits="userSpaceOnUse"
       id="clipPath292"><path
         d="m 290.306,48.047 c -0.865,-0.039 -1.567,-0.741 -1.607,-1.606 l 0,0 0,-8.003 c 0.04,-0.873 0.754,-1.58 1.63,-1.608 l 0,0 14.234,0 c 0.901,0.029 1.632,0.778 1.632,1.686 l 0,0 0,7.847 c 0,0.901 -0.718,1.644 -1.609,1.684 l 0,0 -14.28,0 z m 5.098,-8.176 0,2.29 0,0.547 0,2.29 c 0,0.156 0.107,0.214 0.234,0.137 l 0,0 1.988,-1.14 c 0.127,-0.079 0.341,-0.196 0.478,-0.274 l 0,0 1.979,-1.15 c 0.127,-0.068 0.127,-0.195 0,-0.273 l 0,0 -1.979,-1.14 c -0.137,-0.078 -0.351,-0.205 -0.478,-0.274 l 0,0 -1.988,-1.15 -0.108,-0.029 c -0.067,0 -0.126,0.059 -0.126,0.166"
         id="path294"
         inkscape:connector-curvature="0" /></clipPath><clipPath
       clipPathUnits="userSpaceOnUse"
       id="clipPath298"><path
         d="m 0,0 722.315,0 0,1005.78 L 0,1005.78 0,0 Z"
         id="path300"
         inkscape:connector-curvature="0" /></clipPath><linearGradient
       x1="0"
       y1="0"
       x2="1"
       y2="0"
       gradientUnits="userSpaceOnUse"
       gradientTransform="matrix(0,-11.21697,-11.21697,0,297.4474,48.04634)"
       spreadMethod="pad"
       id="linearGradient304"><stop
         style="stop-opacity:1;stop-color:#ffffff"
         offset="0"
         id="stop306" /><stop
         style="stop-opacity:1;stop-color:#e7e8e6"
         offset="1"
         id="stop308" /></linearGradient><clipPath
       clipPathUnits="userSpaceOnUse"
       id="clipPath316"><path
         d="m 8.208,6.827 693.107,0 0,120.272 -693.107,0 0,-120.272 z"
         id="path318"
         inkscape:connector-curvature="0" /></clipPath><clipPath
       clipPathUnits="userSpaceOnUse"
       id="clipPath372"><path
         d="m 0,0 722.315,0 0,1005.78 L 0,1005.78 0,0 Z"
         id="path374"
         inkscape:connector-curvature="0" /></clipPath><clipPath
       clipPathUnits="userSpaceOnUse"
       id="clipPath396"><path
         d="m 8.208,828.658 184.195,0 0,170.294 -184.195,0 0,-170.294 z"
         id="path398"
         inkscape:connector-curvature="0" /></clipPath><clipPath
       clipPathUnits="userSpaceOnUse"
       id="clipPath408"><path
         d="m 8.208,6.827 693.107,0 0,992.125 -693.107,0 0,-992.125 z"
         id="path410"
         inkscape:connector-curvature="0" /></clipPath><clipPath
       clipPathUnits="userSpaceOnUse"
       id="clipPath418"><path
         d="m 34.431,871.531 110.605,0 0,111.043 -110.605,0 0,-111.043 z"
         id="path420"
         inkscape:connector-curvature="0" /></clipPath><clipPath
       clipPathUnits="userSpaceOnUse"
       id="clipPath496"><path
         d="m 529.374,821.629 c -7.269,-8.674 -15.369,-17.369 -24.23,-26.038 l 0,0 5.942,0 c 7.795,7.78 14.973,15.574 21.495,23.358 l 0,0 c 0.741,0.876 0.624,2.193 -0.263,2.934 l 0,0 c -0.392,0.331 -0.868,0.492 -1.341,0.492 l 0,0 c -0.597,0 -1.189,-0.257 -1.603,-0.746 M 97.181,594.99 C 66.025,588.82 36.108,584.997 8.208,583.691 l 0,0 0,-1.91 30.004,0 c 12.691,1.315 25.711,3.09 38.994,5.312 l 0,0 c 13.133,2.2 26.528,4.838 40.116,7.897 l 0,0 -20.141,0 z"
         id="path498"
         inkscape:connector-curvature="0" /></clipPath><clipPath
       clipPathUnits="userSpaceOnUse"
       id="clipPath502"><path
         d="m 0,0 722.315,0 0,1005.78 L 0,1005.78 0,0 Z"
         id="path504"
         inkscape:connector-curvature="0" /></clipPath><linearGradient
       x1="0"
       y1="0"
       x2="1"
       y2="0"
       gradientUnits="userSpaceOnUse"
       gradientTransform="matrix(0,-934.2023,-934.2023,0,755.3096,1044.285)"
       spreadMethod="pad"
       id="linearGradient508"><stop
         style="stop-opacity:1;stop-color:#ffffff"
         offset="0"
         id="stop510" /><stop
         style="stop-opacity:1;stop-color:#73b9b1"
         offset="1"
         id="stop512" /></linearGradient><clipPath
       clipPathUnits="userSpaceOnUse"
       id="clipPath520"><path
         d="m 8.208,581.781 0,-2.274 c 9.767,0.454 19.781,1.214 30.004,2.274 l 0,0 -30.004,0 z"
         id="path522"
         inkscape:connector-curvature="0" /></clipPath><clipPath
       clipPathUnits="userSpaceOnUse"
       id="clipPath526"><path
         d="m 0,0 722.315,0 0,1005.78 L 0,1005.78 0,0 Z"
         id="path528"
         inkscape:connector-curvature="0" /></clipPath><clipPath
       clipPathUnits="userSpaceOnUse"
       id="clipPath538"><path
         d="m 256.391,795.591 65.464,0 c -3.184,19.676 -10.018,36.731 -20.641,45.671 l 0,0 c -21.855,-6.87 -36.461,-24.551 -44.823,-45.671"
         id="path540"
         inkscape:connector-curvature="0" /></clipPath><clipPath
       clipPathUnits="userSpaceOnUse"
       id="clipPath544"><path
         d="m 0,0 722.315,0 0,1005.78 L 0,1005.78 0,0 Z"
         id="path546"
         inkscape:connector-curvature="0" /></clipPath><linearGradient
       x1="0"
       y1="0"
       x2="1"
       y2="0"
       gradientUnits="userSpaceOnUse"
       gradientTransform="matrix(0,-934.2023,-934.2023,0,755.3096,1044.285)"
       spreadMethod="pad"
       id="linearGradient550"><stop
         style="stop-opacity:1;stop-color:#ffffff"
         offset="0"
         id="stop552" /><stop
         style="stop-opacity:1;stop-color:#73b9b1"
         offset="1"
         id="stop554" /></linearGradient><clipPath
       clipPathUnits="userSpaceOnUse"
       id="clipPath562"><path
         d="m 371.38,795.591 84.217,0 c 26.169,36.457 30.85,103.139 -20.743,157.251 l 0,0 C 359.896,930.027 347.904,840.985 371.38,795.591"
         id="path564"
         inkscape:connector-curvature="0" /></clipPath><clipPath
       clipPathUnits="userSpaceOnUse"
       id="clipPath568"><path
         d="m 0,0 722.315,0 0,1005.78 L 0,1005.78 0,0 Z"
         id="path570"
         inkscape:connector-curvature="0" /></clipPath><linearGradient
       x1="0"
       y1="0"
       x2="1"
       y2="0"
       gradientUnits="userSpaceOnUse"
       gradientTransform="matrix(0,-934.2023,-934.2023,0,755.3096,1044.285)"
       spreadMethod="pad"
       id="linearGradient574"><stop
         style="stop-opacity:1;stop-color:#ffffff"
         offset="0"
         id="stop576" /><stop
         style="stop-opacity:1;stop-color:#73b9b1"
         offset="1"
         id="stop578" /></linearGradient><clipPath
       clipPathUnits="userSpaceOnUse"
       id="clipPath586"><path
         d="m 202.525,594.99 c -6.247,-2.192 -10.739,-6.43 -12.416,-13.209 l 0,0 73.756,0 c -10.618,6.049 -22.49,10.765 -33.587,13.209 l 0,0 -27.753,0 z"
         id="path588"
         inkscape:connector-curvature="0" /></clipPath><clipPath
       clipPathUnits="userSpaceOnUse"
       id="clipPath592"><path
         d="m 0,0 722.315,0 0,1005.78 L 0,1005.78 0,0 Z"
         id="path594"
         inkscape:connector-curvature="0" /></clipPath><linearGradient
       x1="0"
       y1="0"
       x2="1"
       y2="0"
       gradientUnits="userSpaceOnUse"
       gradientTransform="matrix(0,-934.2023,-934.2023,0,755.3096,1044.285)"
       spreadMethod="pad"
       id="linearGradient598"><stop
         style="stop-opacity:1;stop-color:#ffffff"
         offset="0"
         id="stop600" /><stop
         style="stop-opacity:1;stop-color:#73b9b1"
         offset="1"
         id="stop602" /></linearGradient><clipPath
       clipPathUnits="userSpaceOnUse"
       id="clipPath610"><path
         d="m 190.109,581.781 c -0.148,-0.593 -0.274,-1.21 -0.377,-1.843 l 0,0 c -4.696,-28.881 34.987,-51.056 68.419,-51.056 l 0,0 c 16.332,0 31.167,5.287 38.618,17.668 l 0,0 c -2.255,12.569 -15.982,25.59 -32.904,35.231 l 0,0 -73.756,0 z"
         id="path612"
         inkscape:connector-curvature="0" /></clipPath><clipPath
       clipPathUnits="userSpaceOnUse"
       id="clipPath616"><path
         d="m 0,0 722.315,0 0,1005.78 L 0,1005.78 0,0 Z"
         id="path618"
         inkscape:connector-curvature="0" /></clipPath><clipPath
       clipPathUnits="userSpaceOnUse"
       id="clipPath628"><path
         d="m 68.882,627.085 0,42.729 c -5.254,-14.75 -5.767,-31.329 0,-42.729"
         id="path630"
         inkscape:connector-curvature="0" /></clipPath><clipPath
       clipPathUnits="userSpaceOnUse"
       id="clipPath634"><path
         d="m 0,0 722.315,0 0,1005.78 L 0,1005.78 0,0 Z"
         id="path636"
         inkscape:connector-curvature="0" /></clipPath><linearGradient
       x1="0"
       y1="0"
       x2="1"
       y2="0"
       gradientUnits="userSpaceOnUse"
       gradientTransform="matrix(0,-934.2023,-934.2023,0,755.3096,1044.285)"
       spreadMethod="pad"
       id="linearGradient640"><stop
         style="stop-opacity:1;stop-color:#ffffff"
         offset="0"
         id="stop642" /><stop
         style="stop-opacity:1;stop-color:#73b9b1"
         offset="1"
         id="stop644" /></linearGradient><clipPath
       clipPathUnits="userSpaceOnUse"
       id="clipPath652"><path
         d="m 88.846,563.785 c -5.84,-24.671 29.092,-46.127 57.457,-46.127 l 0,0 c 11.782,0 22.428,3.7 28.553,12.408 l 0,0 c -2.232,21.026 -42.392,46.24 -67.241,46.24 l 0,0 c -9.438,0 -16.665,-3.636 -18.769,-12.521"
         id="path654"
         inkscape:connector-curvature="0" /></clipPath><clipPath
       clipPathUnits="userSpaceOnUse"
       id="clipPath658"><path
         d="m 0,0 722.315,0 0,1005.78 L 0,1005.78 0,0 Z"
         id="path660"
         inkscape:connector-curvature="0" /></clipPath><clipPath
       clipPathUnits="userSpaceOnUse"
       id="clipPath670"><path
         d="m 334.348,594.99 c 5.537,-5.186 12.66,-9.683 20.784,-13.209 l 0,0 79.861,0 c 6.996,3.303 13.595,7.662 19.544,13.209 l 0,0 -120.189,0 z"
         id="path672"
         inkscape:connector-curvature="0" /></clipPath><clipPath
       clipPathUnits="userSpaceOnUse"
       id="clipPath676"><path
         d="m 0,0 722.315,0 0,1005.78 L 0,1005.78 0,0 Z"
         id="path678"
         inkscape:connector-curvature="0" /></clipPath><linearGradient
       x1="0"
       y1="0"
       x2="1"
       y2="0"
       gradientUnits="userSpaceOnUse"
       gradientTransform="matrix(0,-934.2023,-934.2023,0,755.3096,1044.285)"
       spreadMethod="pad"
       id="linearGradient682"><stop
         style="stop-opacity:1;stop-color:#ffffff"
         offset="0"
         id="stop684" /><stop
         style="stop-opacity:1;stop-color:#73b9b1"
         offset="1"
         id="stop686" /></linearGradient><clipPath
       clipPathUnits="userSpaceOnUse"
       id="clipPath694"><path
         d="m 355.132,581.781 c 12.071,-5.239 26.359,-8.332 40.927,-8.332 l 0,0 c 13.22,0 26.675,2.544 38.934,8.332 l 0,0 -79.861,0 z"
         id="path696"
         inkscape:connector-curvature="0" /></clipPath><clipPath
       clipPathUnits="userSpaceOnUse"
       id="clipPath700"><path
         d="m 0,0 722.315,0 0,1005.78 L 0,1005.78 0,0 Z"
         id="path702"
         inkscape:connector-curvature="0" /></clipPath><clipPath
       clipPathUnits="userSpaceOnUse"
       id="clipPath712"><path
         d="M 668.875,998.951 C 592.158,986.511 497.278,916.178 551.074,839.128 l 0,0 c 11.286,-6.582 23.167,-9.544 35.111,-9.544 l 0,0 c 55.059,0 111.298,62.987 115.13,124.76 l 0,0 0,13.216 c -0.691,10.76 -3.117,21.338 -7.566,31.391 l 0,0 -24.874,0 z"
         id="path714"
         inkscape:connector-curvature="0" /></clipPath><clipPath
       clipPathUnits="userSpaceOnUse"
       id="clipPath718"><path
         d="m 0,0 722.315,0 0,1005.78 L 0,1005.78 0,0 Z"
         id="path720"
         inkscape:connector-curvature="0" /></clipPath><linearGradient
       x1="0"
       y1="0"
       x2="1"
       y2="0"
       gradientUnits="userSpaceOnUse"
       gradientTransform="matrix(0,-934.2023,-934.2023,0,755.3096,1044.285)"
       spreadMethod="pad"
       id="linearGradient724"><stop
         style="stop-opacity:1;stop-color:#ffffff"
         offset="0"
         id="stop726" /><stop
         style="stop-opacity:1;stop-color:#73b9b1"
         offset="1"
         id="stop728" /></linearGradient><clipPath
       clipPathUnits="userSpaceOnUse"
       id="clipPath736"><path
         d="M 511.086,795.591 C 457.541,742.147 375.115,689.541 279.544,648.372 l 0,0 C 224.844,624.81 169.621,606.765 117.322,594.99 l 0,0 85.203,0 c 3.59,1.26 7.759,1.843 12.308,1.843 l 0,0 c 4.804,0 10.032,-0.651 15.445,-1.843 l 0,0 104.07,0 c -9.729,9.111 -14.568,20.343 -11.337,32.14 l 0,0 c 5.527,20.203 26.789,28.633 51.353,28.633 l 0,0 c 37.745,0 83.274,-19.915 91.412,-47.622 l 0,0 c -3.38,-4.974 -7.153,-9.341 -11.239,-13.151 l 0,0 218.732,0 0,200.601 -162.183,0 z m -54.532,-90.318 c 4.903,25.667 32.035,42.091 64.614,42.091 l 0,0 c 35.167,0 76.68,-19.156 103.379,-66.501 l 0,0 C 605.278,650.055 575.325,638.12 545.98,638.12 l 0,0 c -48.82,0 -95.959,33.032 -89.426,67.153 m -0.957,90.318 c -11.932,-16.622 -28.331,-26.959 -45.904,-26.959 l 0,0 c -1.181,0 -2.366,0.047 -3.557,0.142 l 0,0 c -14.911,1.181 -26.847,11.523 -34.756,26.817 l 0,0 -49.525,0 c 7.725,-47.743 -6.058,-110.913 -39.398,-110.913 l 0,0 c -0.816,0 -1.636,0.038 -2.475,0.114 l 0,0 c -30.455,2.784 -41.759,64.912 -23.591,110.799 l 0,0 -187.509,0 0,-125.777 c 6.016,16.89 18.251,31.379 34.402,32.934 l 0,0 c 22.732,-15.46 15.036,-89.309 -13.934,-89.309 l 0,0 c -1.553,0 -3.167,0.212 -4.842,0.658 l 0,0 c -7.309,1.943 -12.431,6.672 -15.626,12.988 l 0,0 0,-32.095 28.299,0 c 57.615,11.407 119.466,30.838 180.715,57.223 l 0,0 c 93.352,40.212 174.038,91.326 227.248,143.378 l 0,0 -49.547,0 z M 180.139,640.476 c -43.945,8.374 -30.687,101.207 15.072,108.938 l 0,0 c 29.252,-16.991 25.834,-109.371 -10.647,-109.371 l 0,0 c -1.426,0 -2.898,0.141 -4.425,0.433"
         id="path738"
         inkscape:connector-curvature="0" /></clipPath><clipPath
       clipPathUnits="userSpaceOnUse"
       id="clipPath742"><path
         d="m 0,0 722.315,0 0,1005.78 L 0,1005.78 0,0 Z"
         id="path744"
         inkscape:connector-curvature="0" /></clipPath><clipPath
       clipPathUnits="userSpaceOnUse"
       id="clipPath754"><path
         d="M 505.144,795.591 C 451.934,743.539 371.248,692.425 277.896,652.213 l 0,0 C 216.647,625.828 154.796,606.397 97.181,594.99 l 0,0 20.141,0 c 52.299,11.775 107.522,29.82 162.222,53.382 l 0,0 c 95.571,41.169 177.997,93.775 231.542,147.219 l 0,0 -5.942,0 z"
         id="path756"
         inkscape:connector-curvature="0" /></clipPath><clipPath
       clipPathUnits="userSpaceOnUse"
       id="clipPath760"><path
         d="m 0,0 722.315,0 0,1005.78 L 0,1005.78 0,0 Z"
         id="path762"
         inkscape:connector-curvature="0" /></clipPath><clipPath
       clipPathUnits="userSpaceOnUse"
       id="clipPath772"><path
         d="m 180.139,640.476 c 1.527,-0.292 2.999,-0.433 4.425,-0.433 l 0,0 c 36.481,0 39.899,92.38 10.647,109.371 l 0,0 C 149.452,741.683 136.194,648.85 180.139,640.476"
         id="path774"
         inkscape:connector-curvature="0" /></clipPath><clipPath
       clipPathUnits="userSpaceOnUse"
       id="clipPath778"><path
         d="m 0,0 722.315,0 0,1005.78 L 0,1005.78 0,0 Z"
         id="path780"
         inkscape:connector-curvature="0" /></clipPath><clipPath
       clipPathUnits="userSpaceOnUse"
       id="clipPath790"><path
         d="m 256.391,795.591 c -18.168,-45.887 -6.864,-108.015 23.591,-110.799 l 0,0 c 0.839,-0.076 1.659,-0.114 2.475,-0.114 l 0,0 c 33.34,0 47.123,63.17 39.398,110.913 l 0,0 -65.464,0 z"
         id="path792"
         inkscape:connector-curvature="0" /></clipPath><clipPath
       clipPathUnits="userSpaceOnUse"
       id="clipPath796"><path
         d="m 0,0 722.315,0 0,1005.78 L 0,1005.78 0,0 Z"
         id="path798"
         inkscape:connector-curvature="0" /></clipPath><clipPath
       clipPathUnits="userSpaceOnUse"
       id="clipPath808"><path
         d="m 371.38,795.591 c 7.909,-15.294 19.845,-25.636 34.756,-26.817 l 0,0 c 1.191,-0.095 2.376,-0.142 3.557,-0.142 l 0,0 c 17.573,0 33.972,10.337 45.904,26.959 l 0,0 -84.217,0 z"
         id="path810"
         inkscape:connector-curvature="0" /></clipPath><clipPath
       clipPathUnits="userSpaceOnUse"
       id="clipPath814"><path
         d="m 0,0 722.315,0 0,1005.78 L 0,1005.78 0,0 Z"
         id="path816"
         inkscape:connector-curvature="0" /></clipPath><clipPath
       clipPathUnits="userSpaceOnUse"
       id="clipPath826"><path
         d="m 202.525,594.99 27.753,0 c -5.413,1.192 -10.641,1.843 -15.445,1.843 l 0,0 c -4.549,0 -8.718,-0.583 -12.308,-1.843"
         id="path828"
         inkscape:connector-curvature="0" /></clipPath><clipPath
       clipPathUnits="userSpaceOnUse"
       id="clipPath832"><path
         d="m 0,0 722.315,0 0,1005.78 L 0,1005.78 0,0 Z"
         id="path834"
         inkscape:connector-curvature="0" /></clipPath><clipPath
       clipPathUnits="userSpaceOnUse"
       id="clipPath844"><path
         d="m 68.882,669.814 0,-42.729 c 3.195,-6.316 8.317,-11.045 15.626,-12.988 l 0,0 c 1.675,-0.446 3.289,-0.658 4.842,-0.658 l 0,0 c 28.97,0 36.666,73.849 13.934,89.309 l 0,0 C 87.133,701.193 74.898,686.704 68.882,669.814"
         id="path846"
         inkscape:connector-curvature="0" /></clipPath><clipPath
       clipPathUnits="userSpaceOnUse"
       id="clipPath850"><path
         d="m 0,0 722.315,0 0,1005.78 L 0,1005.78 0,0 Z"
         id="path852"
         inkscape:connector-curvature="0" /></clipPath><clipPath
       clipPathUnits="userSpaceOnUse"
       id="clipPath862"><path
         d="m 323.011,627.13 c -3.231,-11.797 1.608,-23.029 11.337,-32.14 l 0,0 120.189,0 c 4.086,3.81 7.859,8.177 11.239,13.151 l 0,0 c -8.138,27.707 -53.667,47.622 -91.412,47.622 l 0,0 c -24.564,0 -45.826,-8.43 -51.353,-28.633"
         id="path864"
         inkscape:connector-curvature="0" /></clipPath><clipPath
       clipPathUnits="userSpaceOnUse"
       id="clipPath868"><path
         d="m 0,0 722.315,0 0,1005.78 L 0,1005.78 0,0 Z"
         id="path870"
         inkscape:connector-curvature="0" /></clipPath><clipPath
       clipPathUnits="userSpaceOnUse"
       id="clipPath880"><path
         d="M 456.554,705.273 C 450.021,671.152 497.16,638.12 545.98,638.12 l 0,0 c 29.345,0 59.298,11.935 78.567,42.743 l 0,0 c -26.699,47.345 -68.212,66.501 -103.379,66.501 l 0,0 c -32.579,0 -59.711,-16.424 -64.614,-42.091"
         id="path882"
         inkscape:connector-curvature="0" /></clipPath><clipPath
       clipPathUnits="userSpaceOnUse"
       id="clipPath886"><path
         d="m 0,0 722.315,0 0,1005.78 L 0,1005.78 0,0 Z"
         id="path888"
         inkscape:connector-curvature="0" /></clipPath><clipPath
       clipPathUnits="userSpaceOnUse"
       id="clipPath898"><path
         d="m 0,0 722.315,0 0,1005.78 L 0,1005.78 0,0 Z"
         id="path900"
         inkscape:connector-curvature="0" /></clipPath></defs><sodipodi:namedview
     pagecolor="#ffffff"
     bordercolor="#666666"
     borderopacity="1"
     objecttolerance="10"
     gridtolerance="10"
     guidetolerance="10"
     inkscape:pageopacity="0"
     inkscape:pageshadow="2"
     inkscape:window-width="1280"
     inkscape:window-height="691"
     id="namedview4"
     showgrid="false"
     inkscape:zoom="0.88736803"
     inkscape:cx="79.576294"
     inkscape:cy="75.189438"
     inkscape:window-x="0"
     inkscape:window-y="1"
     inkscape:window-maximized="1"
     inkscape:current-layer="g10" /><g
     id="g10"
     inkscape:groupmode="layer"
     inkscape:label="Logo Noisy Sec"
     transform="matrix(1.25,0,0,-1.25,-35.441912,1525.4749)"><g
       id="g4361"
       transform="matrix(4.3254543,0,0,4.3254543,-119.77662,-2969.7632)"><path
         inkscape:connector-curvature="0"
         id="path422"
         style="fill:#d1d6e2;fill-opacity:1;fill-rule:nonzero;stroke:none"
         d="m 62.6279,918.8397 c 0.263,-1.488 0.579,-2.911 0.933,-4.271 6.252,-23.767 26.103,-28.987 26.103,-28.987 0,0 -9.051,4.175 -16.56,15.177 -3.348,4.906 -6.39,11.168 -8.186,19.022 -3.222,14.09 1.99,26.434 7.29,34.656 -2.131,-48.923 25.425,-65.367 25.425,-65.367 l 2.618,2.705 c -1.573,-1.753 -2.618,-2.705 -2.618,-2.705 5.556,3.834 23.045,18.776 18.201,46.199 -4.842,27.42 -27.037,33.252 -27.037,33.252 0,0 18.921,-8.726 24.749,-34.198 3.586,-15.691 -3.285,-29.219 -9.088,-37.294 -25.922,21.51 -24.02,67.537 -24.02,67.537 -0.103,-0.068 -0.198,-0.134 -0.3,-0.2 0.432,0.433 0.69,0.668 0.69,0.668 -0.817,-0.566 -1.896,-1.373 -3.12,-2.421 -1.225,-0.991 -2.227,-1.968 -3.017,-2.834 -6.991,-7.174 -15.65,-20.632 -12.063,-40.939" /><g
         id="g4323"><path
           d="m 36.7567,919.571 0,-7.555 -2.277,0 0,12.578 7.948,-7.81 0,7.555 2.277,0 0,-12.579 -7.948,7.811 z"
           style="fill:#f25c19;fill-opacity:1;fill-rule:nonzero;stroke:none"
           id="path424"
           inkscape:connector-curvature="0" /><path
           d="m 36.7081,919.6871 7.948,-7.811 0,12.415 -2.18,0 0,-7.623 -7.947,7.811 0,-12.415 2.179,0 0,7.623 z m 8.045,-8.043 -7.948,7.811 0,-7.489 -2.374,0 0,12.744 7.948,-7.81 0,7.488 2.374,0 0,-12.744 z"
           style="fill:#f25c19;fill-opacity:1;fill-rule:nonzero;stroke:none"
           id="path426"
           inkscape:connector-curvature="0" /><path
           d="m 51.9645,913.6838 c 1.786,0 3.081,1.373 3.081,3.081 0,1.707 -1.295,3.081 -3.081,3.081 -1.786,0 -3.081,-1.374 -3.081,-3.081 0,-1.708 1.295,-3.081 3.081,-3.081 m 0,8.085 c 3.317,0 5.24,-2.492 5.24,-5.004 0,-2.512 -1.923,-5.005 -5.24,-5.005 -3.316,0 -5.24,2.493 -5.24,5.005 0,2.512 1.924,5.004 5.24,5.004"
           style="fill:#f25c19;fill-opacity:1;fill-rule:nonzero;stroke:none"
           id="path428"
           inkscape:connector-curvature="0" /><path
           d="m 51.9645,919.797 c -1.729,0 -3.032,-1.303 -3.032,-3.032 0,-1.729 1.303,-3.032 3.032,-3.032 1.729,0 3.032,1.303 3.032,3.032 0,1.729 -1.303,3.032 -3.032,3.032 m 0,-6.162 c -1.783,0 -3.13,1.345 -3.13,3.13 0,1.784 1.347,3.129 3.13,3.129 1.785,0 3.13,-1.345 3.13,-3.129 0,-1.785 -1.345,-3.13 -3.13,-3.13 m 0,8.086 c -3.372,0 -5.191,-2.554 -5.191,-4.956 0,-2.403 1.819,-4.956 5.191,-4.956 3.372,0 5.191,2.553 5.191,4.956 0,2.402 -1.819,4.956 -5.191,4.956 m 0,-10.009 c -3.435,0 -5.287,2.603 -5.287,5.053 0,2.45 1.852,5.053 5.287,5.053 3.435,0 5.288,-2.603 5.288,-5.053 0,-2.45 -1.853,-5.053 -5.288,-5.053"
           style="fill:#f25c19;fill-opacity:1;fill-rule:nonzero;stroke:none"
           id="path430"
           inkscape:connector-curvature="0" /><path
           d="m 59.128,921.514 2.041,0 0,-9.498 -2.041,0 0,9.498 z m 1.02,3.081 c 0.628,0 1.139,-0.511 1.139,-1.138 0,-0.629 -0.511,-1.138 -1.139,-1.138 -0.628,0 -1.138,0.509 -1.138,1.138 0,0.627 0.51,1.138 1.138,1.138"
           style="fill:#f25c19;fill-opacity:1;fill-rule:nonzero;stroke:none"
           id="path432"
           inkscape:connector-curvature="0" /><path
           d="m 60.148,924.5462 c -0.601,0 -1.09,-0.49 -1.09,-1.09 0,-0.601 0.489,-1.089 1.09,-1.089 0.601,0 1.09,0.488 1.09,1.089 0,0.6 -0.489,1.09 -1.09,1.09 m 0,-2.276 c -0.655,0 -1.187,0.532 -1.187,1.186 0,0.655 0.532,1.187 1.187,1.187 0.655,0 1.187,-0.532 1.187,-1.187 0,-0.654 -0.532,-1.186 -1.187,-1.186 m -0.972,-10.207 1.944,0 0,9.401 -1.944,0 0,-9.401 z m 2.041,-0.096 -2.139,0 0,9.596 2.139,0 0,-9.596 z"
           style="fill:#f25c19;fill-opacity:1;fill-rule:nonzero;stroke:none"
           id="path434"
           inkscape:connector-curvature="0" /><path
           d="m 64.2886,914.8419 c 0.726,-0.785 1.924,-1.394 2.983,-1.394 1.178,0 1.885,0.668 1.885,1.198 0,0.627 -0.491,0.961 -1.237,1.098 l -1.158,0.216 c -2.669,0.491 -3.414,1.355 -3.414,2.708 0,1.61 1.353,3.101 3.728,3.101 1.315,0 2.472,-0.392 3.768,-1.315 l -1.158,-1.432 c -1.001,0.843 -1.884,1.06 -2.551,1.06 -0.883,0 -1.747,-0.433 -1.747,-1.198 0,-0.569 0.453,-0.864 1.237,-1 l 2.06,-0.394 c 1.687,-0.313 2.512,-1.118 2.512,-2.53 0,-1.394 -1.138,-3.199 -4.023,-3.199 -1.609,0 -2.984,0.569 -4.278,1.667 l 1.393,1.414 z"
           style="fill:#f25c19;fill-opacity:1;fill-rule:nonzero;stroke:none"
           id="path436"
           inkscape:connector-curvature="0" /><path
           d="m 62.9674,913.4319 c 1.319,-1.107 2.657,-1.623 4.206,-1.623 2.732,0 3.974,1.634 3.974,3.151 0,1.381 -0.785,2.17 -2.472,2.483 l -2.06,0.393 c -0.87,0.151 -1.275,0.485 -1.275,1.048 0,0.619 0.615,1.246 1.794,1.246 0.858,0 1.713,-0.35 2.545,-1.039 l 1.094,1.353 c -1.252,0.882 -2.394,1.277 -3.697,1.277 -2.416,0 -3.68,-1.537 -3.68,-3.053 0,-1.224 0.574,-2.144 3.374,-2.66 l 1.158,-0.216 c 0.847,-0.156 1.277,-0.542 1.277,-1.147 0,-0.522 -0.673,-1.245 -1.933,-1.245 -1.011,0 -2.204,0.549 -2.985,1.372 l -1.32,-1.34 z m 4.206,-1.721 c -1.568,0 -2.977,0.551 -4.309,1.681 l -0.04,0.033 1.465,1.487 0.035,-0.038 c 0.763,-0.823 1.946,-1.377 2.948,-1.377 0.749,0 1.835,0.409 1.835,1.148 0,0.551 -0.402,0.905 -1.197,1.052 l -1.158,0.216 c -2.485,0.456 -3.454,1.23 -3.454,2.755 0,1.565 1.298,3.15 3.778,3.15 1.339,0 2.51,-0.409 3.796,-1.325 l 0.041,-0.03 -1.221,-1.511 -0.038,0.032 c -0.826,0.696 -1.673,1.049 -2.52,1.049 -0.822,0 -1.698,-0.402 -1.698,-1.149 0,-0.507 0.38,-0.81 1.196,-0.952 l 2.062,-0.394 c 1.717,-0.318 2.551,-1.163 2.551,-2.578 0,-1.565 -1.274,-3.249 -4.072,-3.249"
           style="fill:#f25c19;fill-opacity:1;fill-rule:nonzero;stroke:none"
           id="path438"
           inkscape:connector-curvature="0" /><path
           d="m 72.8844,921.5139 2.041,0 0,-5.574 c 0,-1.589 0.98,-2.256 2.236,-2.256 1.59,0 2.355,0.981 2.355,2.452 l 0,5.378 2.042,0 0,-9.203 c 0,-2.906 -2.572,-4.18 -4.337,-4.18 -2.139,0 -3.101,0.804 -4.023,1.864 l 1.727,1.06 c 0.648,-0.629 1.294,-1.002 2.178,-1.002 1.353,0 2.531,0.825 2.531,2.493 l 0,0.51 -0.038,0 c -0.806,-0.904 -1.552,-1.296 -2.866,-1.296 -2.12,0 -3.846,1.59 -3.846,4.259 l 0,5.495 z"
           style="fill:#f25c19;fill-opacity:1;fill-rule:nonzero;stroke:none"
           id="path440"
           inkscape:connector-curvature="0" /><path
           d="m 73.2723,909.983 c 0.838,-0.956 1.785,-1.804 3.948,-1.804 1.781,0 4.289,1.281 4.289,4.132 l 0,9.154 -1.943,0 0,-5.329 c 0,-1.589 -0.876,-2.501 -2.404,-2.501 -1.452,0 -2.286,0.84 -2.286,2.305 l 0,5.525 -1.943,0 0,-5.446 c 0,-2.479 1.562,-4.21 3.797,-4.21 1.247,0 1.987,0.335 2.83,1.279 l 0.014,0.016 0.109,0 0,-0.558 c 0,-1.173 -0.676,-2.542 -2.579,-2.542 -0.808,0 -1.463,0.296 -2.185,0.989 l -1.647,-1.01 z m 3.948,-1.901 c -2.236,0 -3.196,0.89 -4.059,1.881 l -0.038,0.043 1.809,1.109 0.027,-0.026 c 0.713,-0.693 1.355,-0.987 2.145,-0.987 1.832,0 2.482,1.316 2.482,2.444 l 0,0.426 c -0.835,-0.918 -1.616,-1.26 -2.856,-1.26 -2.292,0 -3.894,1.771 -3.894,4.307 l 0,5.544 2.137,0 0,-5.623 c 0,-1.403 0.799,-2.207 2.189,-2.207 1.466,0 2.306,0.875 2.306,2.403 l 0,5.427 2.139,0 0,-9.252 c 0,-2.917 -2.565,-4.229 -4.387,-4.229"
           style="fill:#f25c19;fill-opacity:1;fill-rule:nonzero;stroke:none"
           id="path442"
           inkscape:connector-curvature="0" /><path
           d="m 83.795,917.353 3.924,0 0,1.924 -3.924,0 0,-1.924 z"
           style="fill:#f25c19;fill-opacity:1;fill-rule:nonzero;stroke:none"
           id="path444"
           inkscape:connector-curvature="0" /><path
           d="m 83.844,917.402 3.827,0 0,1.826 -3.827,0 0,-1.826 z m 3.924,-0.097 -4.022,0 0,2.021 4.022,0 0,-2.021 z"
           style="fill:#f25c19;fill-opacity:1;fill-rule:nonzero;stroke:none"
           id="path446"
           inkscape:connector-curvature="0" /><path
           d="m 92.0369,924.3395 0,-8.498 c 0,-1.099 0.236,-1.491 0.844,-1.844 l 1.099,-0.628 -0.903,-1.609 c -2.1,1 -3.081,1.726 -3.081,3.708 l 0,8.871 2.041,0 z"
           style="fill:#f25c19;fill-opacity:1;fill-rule:nonzero;stroke:none"
           id="path448"
           inkscape:connector-curvature="0" /><path
           d="m 90.0445,924.291 0,-8.822 c 0,-1.889 0.889,-2.628 3.012,-3.645 l 0.857,1.528 -1.057,0.603 c -0.665,0.388 -0.868,0.828 -0.868,1.887 l 0,8.449 -1.944,0 z m 3.052,-12.593 -0.04,0.019 c -2.192,1.045 -3.109,1.797 -3.109,3.752 l 0,8.919 2.138,0 0,-8.546 c 0,-1.128 0.264,-1.479 0.82,-1.802 l 1.141,-0.652 -0.024,-0.042 -0.926,-1.648 z"
           style="fill:#f25c19;fill-opacity:1;fill-rule:nonzero;stroke:none"
           id="path450"
           inkscape:connector-curvature="0" /><path
           d="m 102.2806,917.746 c -0.432,1.452 -1.511,2.217 -2.806,2.217 -1.296,0 -2.355,-0.804 -2.688,-2.217 l 5.494,0 z m 1.883,-3.67 c -1.137,-1.432 -2.706,-2.296 -4.415,-2.316 -3.316,0 -5.24,2.493 -5.24,5.004 0,2.512 1.924,5.005 5.24,5.005 1.983,0 4.926,-1.629 4.926,-5.338 l 0,-0.373 -7.888,0 c 0.116,-1.452 1.471,-2.492 2.904,-2.492 1.099,0 2.041,0.53 2.747,1.472 l 1.726,-0.962 z"
           style="fill:#f25c19;fill-opacity:1;fill-rule:nonzero;stroke:none"
           id="path452"
           inkscape:connector-curvature="0" /><path
           d="m 96.848,917.7946 5.367,0 c -0.42,1.329 -1.439,2.12 -2.741,2.12 -1.292,0 -2.293,-0.811 -2.626,-2.12 m 5.498,-0.097 -5.622,0 0.015,0.06 c 0.328,1.39 1.376,2.254 2.735,2.254 1.367,0 2.434,-0.841 2.853,-2.252 l 0.019,-0.062 z m -2.597,4.023 c -3.372,0 -5.192,-2.554 -5.192,-4.956 0,-2.403 1.82,-4.956 5.192,-4.956 1.645,0.019 3.184,0.819 4.342,2.253 l -1.641,0.913 c -0.728,-0.954 -1.681,-1.457 -2.76,-1.457 -1.541,0 -2.837,1.114 -2.953,2.536 l -0.003,0.053 7.893,0 0,0.324 c 0,3.649 -2.853,5.29 -4.878,5.29 m 0,-10.008 0,0 c -3.434,0 -5.288,2.603 -5.288,5.052 0,2.45 1.854,5.053 5.288,5.053 2.065,0 4.975,-1.672 4.975,-5.387 l 0,-0.421 -7.884,0 c 0.138,-1.347 1.379,-2.395 2.85,-2.395 1.06,0 1.996,0.501 2.708,1.452 l 0.026,0.034 0.037,-0.02 1.777,-0.989 -0.035,-0.046 c -1.18,-1.485 -2.762,-2.314 -4.454,-2.333"
           style="fill:#f25c19;fill-opacity:1;fill-rule:nonzero;stroke:none"
           id="path454"
           inkscape:connector-curvature="0" /><path
           d="m 106.363,917.353 3.924,0 0,1.924 -3.924,0 0,-1.924 z"
           style="fill:#f25c19;fill-opacity:1;fill-rule:nonzero;stroke:none"
           id="path456"
           inkscape:connector-curvature="0" /><path
           d="m 106.412,917.402 3.827,0 0,1.826 -3.827,0 0,-1.826 z m 3.924,-0.097 -4.022,0 0,2.021 4.022,0 0,-2.021 z"
           style="fill:#f25c19;fill-opacity:1;fill-rule:nonzero;stroke:none"
           id="path458"
           inkscape:connector-curvature="0" /><path
           d="m 113.4466,915.5871 c 0.922,-0.981 2.218,-1.668 3.65,-1.668 1.726,0.02 2.943,0.668 2.943,1.845 0,2.747 -7.948,0.099 -7.948,5.122 0,2.198 2.297,3.708 5.104,3.708 2.04,0 3.689,-0.647 4.906,-1.883 l -1.689,-1.511 c -1.118,1.099 -2.139,1.472 -3.335,1.472 -1.884,0 -2.59,-0.923 -2.59,-1.668 0,-2.767 7.947,0 7.947,-5.122 0,-2.571 -2.61,-4.122 -5.435,-4.122 -1.728,0 -3.729,0.647 -5.279,2.276 l 1.726,1.551 z"
           style="fill:#f25c19;fill-opacity:1;fill-rule:nonzero;stroke:none"
           id="path460"
           inkscape:connector-curvature="0" /><path
           d="m 111.79,914.0341 c 1.365,-1.415 3.26,-2.225 5.209,-2.225 2.611,0 5.387,1.428 5.387,4.073 0,2.908 -2.569,3.231 -4.835,3.515 -1.67,0.211 -3.113,0.391 -3.113,1.607 0,0.854 0.817,1.717 2.639,1.717 1.289,0 2.29,-0.436 3.338,-1.455 l 1.616,1.447 c -1.218,1.216 -2.845,1.833 -4.836,1.833 -2.881,0 -5.054,-1.574 -5.054,-3.66 0,-2.846 2.56,-3.189 4.817,-3.492 1.681,-0.226 3.131,-0.42 3.131,-1.63 0,-1.148 -1.146,-1.873 -2.992,-1.894 -1.322,0 -2.651,0.601 -3.653,1.649 l -1.654,-1.485 z m 5.209,-2.322 c -1.991,0 -3.928,0.834 -5.314,2.291 l -0.035,0.037 1.8,1.615 0.032,-0.035 c 0.987,-1.05 2.305,-1.653 3.614,-1.653 1.786,0.021 2.896,0.709 2.896,1.797 0,1.125 -1.412,1.314 -3.047,1.534 -2.183,0.292 -4.901,0.657 -4.901,3.588 0,2.142 2.215,3.757 5.151,3.757 2.039,0 3.701,-0.638 4.941,-1.897 l 0.036,-0.037 -1.761,-1.576 -0.032,0.032 c -1.039,1.022 -2.027,1.458 -3.302,1.458 -1.756,0 -2.541,-0.814 -2.541,-1.619 0,-1.13 1.403,-1.306 3.027,-1.51 2.192,-0.275 4.92,-0.617 4.92,-3.612 0,-2.709 -2.825,-4.17 -5.484,-4.17"
           style="fill:#f25c19;fill-opacity:1;fill-rule:nonzero;stroke:none"
           id="path462"
           inkscape:connector-curvature="0" /><path
           d="m 131.736,917.746 c -0.431,1.452 -1.511,2.217 -2.806,2.217 -1.296,0 -2.355,-0.804 -2.688,-2.217 l 5.494,0 z m 1.883,-3.67 c -1.137,-1.432 -2.706,-2.296 -4.414,-2.316 -3.317,0 -5.241,2.493 -5.241,5.004 0,2.512 1.924,5.005 5.241,5.005 1.982,0 4.925,-1.629 4.925,-5.338 l 0,-0.373 -7.888,0 c 0.116,-1.452 1.471,-2.492 2.904,-2.492 1.099,0 2.041,0.53 2.747,1.472 l 1.726,-0.962 z"
           style="fill:#f25c19;fill-opacity:1;fill-rule:nonzero;stroke:none"
           id="path464"
           inkscape:connector-curvature="0" /><path
           d="m 126.3036,917.7946 5.367,0 c -0.42,1.329 -1.439,2.12 -2.74,2.12 -1.293,0 -2.294,-0.811 -2.627,-2.12 m 5.498,-0.097 -5.622,0 0.015,0.06 c 0.328,1.39 1.376,2.254 2.736,2.254 1.366,0 2.432,-0.841 2.852,-2.252 l 0.019,-0.062 z m -2.597,4.023 c -3.372,0 -5.192,-2.554 -5.192,-4.956 0,-2.403 1.82,-4.956 5.192,-4.956 1.644,0.019 3.184,0.819 4.341,2.253 l -1.64,0.913 c -0.727,-0.954 -1.681,-1.457 -2.76,-1.457 -1.541,0 -2.837,1.114 -2.952,2.536 l -0.005,0.053 7.894,0 0,0.324 c 0,3.649 -2.853,5.29 -4.878,5.29 m 0,-10.008 0,0 c -3.434,0 -5.289,2.603 -5.289,5.052 0,2.45 1.855,5.053 5.289,5.053 2.065,0 4.975,-1.672 4.975,-5.387 l 0,-0.421 -7.884,0 c 0.138,-1.347 1.379,-2.395 2.85,-2.395 1.06,0 1.996,0.501 2.708,1.452 l 0.026,0.034 0.037,-0.02 1.777,-0.989 -0.035,-0.046 c -1.181,-1.485 -2.763,-2.314 -4.454,-2.333"
           style="fill:#f25c19;fill-opacity:1;fill-rule:nonzero;stroke:none"
           id="path466"
           inkscape:connector-curvature="0" /><path
           d="m 143.1772,918.4132 c -0.549,0.844 -1.315,1.433 -2.473,1.433 -1.785,0 -3.08,-1.374 -3.08,-3.081 0,-1.707 1.295,-3.081 3.08,-3.081 1.118,0 1.924,0.569 2.473,1.432 l 1.786,-1.06 c -0.844,-1.334 -2.454,-2.296 -4.259,-2.296 -3.317,0 -5.239,2.493 -5.239,5.005 0,2.512 1.922,5.003 5.239,5.003 2.021,0 3.337,-0.961 4.259,-2.295 l -1.786,-1.06 z"
           style="fill:#f25c19;fill-opacity:1;fill-rule:nonzero;stroke:none"
           id="path468"
           inkscape:connector-curvature="0" /><path
           d="m 140.7042,921.7203 c -3.372,0 -5.191,-2.553 -5.191,-4.956 0,-2.402 1.819,-4.956 5.191,-4.956 1.698,0 3.298,0.855 4.191,2.232 l -1.702,1.01 c -0.613,-0.939 -1.449,-1.415 -2.489,-1.415 -1.783,0 -3.128,1.346 -3.128,3.129 0,1.785 1.345,3.13 3.128,3.13 1.04,0 1.855,-0.464 2.488,-1.415 l 1.7,1.008 c -1.054,1.502 -2.424,2.233 -4.188,2.233 m 0,-10.008 c -3.435,0 -5.288,2.603 -5.288,5.052 0,2.45 1.853,5.053 5.288,5.053 1.816,0 3.221,-0.758 4.299,-2.316 l 0.029,-0.043 -1.87,-1.111 -0.026,0.039 c -0.618,0.949 -1.414,1.41 -2.432,1.41 -1.729,0 -3.031,-1.303 -3.031,-3.032 0,-1.729 1.302,-3.032 3.031,-3.032 1.018,0 1.837,0.474 2.432,1.41 l 0.025,0.04 1.869,-1.109 -0.026,-0.043 c -0.904,-1.43 -2.552,-2.318 -4.3,-2.318"
           style="fill:#f25c19;fill-opacity:1;fill-rule:nonzero;stroke:none"
           id="path470"
           inkscape:connector-curvature="0" /></g><g
         id="g4349"><path
           d="m 67.5529,933.9319 c -3.094,0 -5.911,0.272 -8.371,0.81 -0.19,0.042 -0.311,0.231 -0.269,0.421 0.04,0.186 0.234,0.311 0.42,0.271 2.412,-0.528 5.178,-0.796 8.221,-0.796 4.917,0 10.391,0.707 15.83,2.043 8.733,2.146 16.357,5.614 20.92,9.515 0.145,0.122 0.376,0.103 0.498,-0.039 0.061,-0.071 0.091,-0.163 0.084,-0.258 -0.008,-0.094 -0.051,-0.179 -0.124,-0.241 -4.642,-3.97 -12.373,-7.493 -21.209,-9.663 -5.493,-1.35 -11.025,-2.063 -16,-2.063"
           style="fill:#125a9e;fill-opacity:1;fill-rule:nonzero;stroke:none"
           id="path472"
           inkscape:connector-curvature="0" /><path
           d="m 78.4467,944.8253 c 2.059,-1.706 0.449,-9.078 -2.5,-7.986 -3.191,1.18 -1.031,7.98 2.5,7.986"
           style="fill:#125a9e;fill-opacity:1;fill-rule:nonzero;stroke:none"
           id="path474"
           inkscape:connector-curvature="0" /><path
           d="m 87.5548,950.3865 c 2.388,-2.804 0.083,-12.432 -3.559,-11.475 -3.286,0.864 -1.918,10.71 3.559,11.475"
           style="fill:#125a9e;fill-opacity:1;fill-rule:nonzero;stroke:none"
           id="path476"
           inkscape:connector-curvature="0" /><path
           d="m 98.9845,957.0808 c 4.745,-7 -0.19,-14.522 -4.466,-13.452 -4.381,1.095 -3.438,12.422 4.466,13.452"
           style="fill:#f25c19;fill-opacity:1;fill-rule:nonzero;stroke:none"
           id="path478"
           inkscape:connector-curvature="0" /><path
           d="m 83.5199,928.3263 c -0.031,2.692 -6.629,6.75 -7.613,3.85 -1.064,-3.138 5.435,-6.395 7.613,-3.85"
           style="fill:#125a9e;fill-opacity:1;fill-rule:nonzero;stroke:none"
           id="path480"
           inkscape:connector-curvature="0" /><path
           d="m 70.9626,942.4776 c 1.592,-1.523 -0.163,-7.487 -2.522,-6.417 -2.554,1.157 -0.381,6.62 2.522,6.417"
           style="fill:#125a9e;fill-opacity:1;fill-rule:nonzero;stroke:none"
           id="path482"
           inkscape:connector-curvature="0" /><path
           d="m 74.1647,928.6203 c 0.133,2.216 -5.052,5.937 -6.031,3.611 -1.059,-2.518 4.092,-5.575 6.031,-3.611"
           style="fill:#125a9e;fill-opacity:1;fill-rule:nonzero;stroke:none"
           id="path484"
           inkscape:connector-curvature="0" /><path
           d="m 96.9761,930.8257 c -0.434,3.601 -8.779,6.888 -10.475,3.217 -1.531,-3.311 6.356,-7.528 10.475,-3.217"
           style="fill:#125a9e;fill-opacity:1;fill-rule:nonzero;stroke:none"
           id="path486"
           inkscape:connector-curvature="0" /><path
           d="m 109.804,934.2894 c -2.714,7.49 -10.865,7.819 -12.3,3.942 -1.471,-3.969 7.418,-9.456 12.3,-3.942"
           style="fill:#125a9e;fill-opacity:1;fill-rule:nonzero;stroke:none"
           id="path488"
           inkscape:connector-curvature="0" /><path
           d="m 118.9494,957.4468 c 1.918,-6.792 -7.473,-14.681 -12.672,-10.358 -3.4,7.155 6.789,11.398 12.672,10.358"
           style="fill:#125a9e;fill-opacity:1;fill-rule:nonzero;stroke:none"
           id="path490"
           inkscape:connector-curvature="0" /></g></g></g></svg>